<?xml version="1.0" encoding="iso-8859-1"?>
<!-- Generator: Adobe Illustrator 16.0.4, SVG Export Plug-In . SVG Version: 6.00 Build 0)  -->
<!DOCTYPE svg PUBLIC "-//W3C//DTD SVG 1.1//EN" "http://www.w3.org/Graphics/SVG/1.1/DTD/svg11.dtd">
<svg version="1.1" id="Capa_1" xmlns="http://www.w3.org/2000/svg" xmlns:xlink="http://www.w3.org/1999/xlink" x="0px" y="0px"
	 width="20px" height="20px" viewBox="0 0 20 20" style="enable-background:new 0 0 20 20;" xml:space="preserve">
<path style="fill:#010002;" d="M16,0H4C1.8,0,0,1.8,0,4v12c0,2.2,1.8,4,4,4h12c2.2,0,4-1.8,4-4V4C20,1.8,18.2,0,16,0z
	 M16.982,17.453h-1.148v-2.174H4.139v2.174H3V9.496c0-0.314,0.255-0.572,0.569-0.572c0.318,0,0.569,0.258,0.569,0.572v4.705h12.844
	V17.453z M5.393,13.346c-0.283,0-0.51-0.227-0.51-0.508c0-0.279,0.227-0.51,0.51-0.51h2.121v-1.531c0-0.277,0.228-0.506,0.507-0.506
	c0.015,0,0.028,0.008,0.046,0.012l8.107,0.807c0.439,0.055,0.818,0.365,0.822,0.816L17,13.346H5.393z M4.86,10.756
	c0-0.568,0.461-1.029,1.033-1.029c0.569,0,1.03,0.461,1.03,1.029c0,0.572-0.461,1.033-1.03,1.033
	C5.321,11.789,4.86,11.328,4.86,10.756z M16.876,7.535L10,4.117L3.124,7.535L2.5,6.279l7.49-3.723l0.003-0.01L10,2.551l0.007-0.004
	l0.003,0.01l7.49,3.723L16.876,7.535z"/>
<g>
</g>
<g>
</g>
<g>
</g>
<g>
</g>
<g>
</g>
<g>
</g>
<g>
</g>
<g>
</g>
<g>
</g>
<g>
</g>
<g>
</g>
<g>
</g>
<g>
</g>
<g>
</g>
<g>
</g>
</svg>
