<?xml version="1.0" encoding="utf-8"?>
<!-- Generator: Adobe Illustrator 16.0.0, SVG Export Plug-In . SVG Version: 6.00 Build 0)  -->
<!DOCTYPE svg PUBLIC "-//W3C//DTD SVG 1.1//EN" "http://www.w3.org/Graphics/SVG/1.1/DTD/svg11.dtd">
<svg version="1.1" id="Layer_1" xmlns="http://www.w3.org/2000/svg" xmlns:xlink="http://www.w3.org/1999/xlink" x="0px" y="0px"
	 width="48px" height="48px" viewBox="0 0 48 48" enable-background="new 0 0 48 48" xml:space="preserve">
<g>
	<path d="M23.854,18.219c-2.028,0-3.465,1.645-3.465,3.672v12.485c0,2.028,1.437,3.671,3.465,3.671c2.027,0,3.464-1.643,3.464-3.671
		V21.891C27.317,19.863,25.881,18.219,23.854,18.219z"/>
	<path d="M23.869,8.674c-2.095,0-3.795,1.699-3.795,3.795c0,2.095,1.7,3.793,3.795,3.793c2.093,0,3.793-1.698,3.793-3.793
		C27.662,10.373,25.962,8.674,23.869,8.674z"/>
	<path d="M23.869,1.242c-12.517,0-22.698,10.183-22.698,22.697c0,12.516,10.182,22.698,22.698,22.698
		c12.516,0,22.696-10.183,22.696-22.698C46.565,11.425,36.385,1.242,23.869,1.242z M23.869,41.689
		c-9.787,0-17.749-7.963-17.749-17.75c0-9.786,7.962-17.748,17.749-17.748c9.786,0,17.747,7.962,17.747,17.748
		C41.616,33.727,33.655,41.689,23.869,41.689z"/>
</g>
</svg>
