<?xml version="1.0" encoding="iso-8859-1"?>
<!-- Generator: Adobe Illustrator 17.1.0, SVG Export Plug-In . SVG Version: 6.00 Build 0)  -->
<!DOCTYPE svg PUBLIC "-//W3C//DTD SVG 1.1//EN" "http://www.w3.org/Graphics/SVG/1.1/DTD/svg11.dtd">
<svg version="1.1" id="Capa_1" xmlns="http://www.w3.org/2000/svg" xmlns:xlink="http://www.w3.org/1999/xlink" x="0px" y="0px"
	 viewBox="0 0 200 200" style="enable-background:new 0 0 200 200;" xml:space="preserve">
<g>
	<path d="M68.978,104.418v24.148c0,1.944,1.576,3.52,3.521,3.52s3.521-1.576,3.521-3.52v-21.941L64.867,94.853
		c-2.436-2.572-3.397-6.164-2.57-9.609l2.684-11.184h-3.137l2.353-3.569c0.496,0.227,1.018,0.406,1.566,0.517
		c0.566-1.671,1.526-3.13,2.761-4.282c1.619-1.508,3.71-2.482,6-2.723c0.343-0.036,0.689-0.059,1.041-0.061V52.421
		c0-1.944-1.576-3.52-3.52-3.52s-3.52,1.577-3.52,3.52v4.248c-0.421-0.076-0.853-0.122-1.296-0.122c-0.446,0-0.88,0.046-1.304,0.123
		V46.646c0-1.944-1.576-3.52-3.521-3.52c-1.944,0-3.52,1.576-3.52,3.52V65.76l-1.705,2.587l-1.705-2.587V46.646
		c0-1.944-1.576-3.52-3.52-3.52s-3.52,1.576-3.52,3.52V56.67c-0.424-0.076-0.858-0.123-1.304-0.123c-0.899,0-1.757,0.17-2.553,0.468
		V40.646c0-1.944-1.576-3.52-3.521-3.52s-3.52,1.576-3.52,3.52V59.76l-2.161,3.279V46.646c0-1.944-1.576-3.52-3.52-3.52
		c-1.944,0-3.52,1.576-3.52,3.52v4.369c-0.796-0.297-1.653-0.468-2.553-0.468c-4.034,0-7.304,3.27-7.304,7.304
		s3.27,7.304,7.304,7.304c0.899,0,1.757-0.17,2.553-0.468v2.128c0,0.428,0.087,0.848,0.237,1.244h-2.79h-6.284l-5.471-8.3V40.646
		c0-1.944-1.576-3.52-3.52-3.52s-3.52,1.576-3.52,3.52v20.17c0,0.689,0.202,1.362,0.581,1.937l9.494,14.404v15.389
		c-0.045,0.226-0.07,0.459-0.07,0.698v29.323c0,1.944,1.576,3.52,3.52,3.52s3.521-1.576,3.521-3.52V98.418h1.75h1.75v24.148
		c0,1.944,1.576,3.52,3.521,3.52s3.521-1.576,3.521-3.52V93.243c0-0.239-0.025-0.472-0.07-0.698V77.229l3.907,5.927v15.389
		c-0.045,0.226-0.07,0.459-0.07,0.698v29.323c0,1.944,1.576,3.52,3.521,3.52c1.944,0,3.52-1.576,3.52-3.52v-24.148h1.75h1.75v24.148
		c0,1.944,1.576,3.52,3.52,3.52s3.52-1.576,3.52-3.52V99.243c0-0.239-0.025-0.472-0.07-0.698V83.156l1.329-2.017l1.329,2.017v15.389
		c-0.045,0.226-0.07,0.459-0.07,0.698v29.323c0,1.944,1.576,3.52,3.52,3.52s3.521-1.576,3.521-3.52v-24.148h1.75H68.978z
		 M47.128,74.06h-6.284l-2.151-3.264l2.142-3.25c1.27,2.157,3.609,3.609,6.293,3.609c1.083,0,2.106-0.242,3.031-0.664l2.353,3.569
		H47.128z"/>
	<path d="M83.591,67.653c0.362-0.579,0.75-1.139,1.175-1.669c0.396-0.494,0.811-0.971,1.257-1.419
		c0.783-0.787,1.64-1.498,2.559-2.126c1.005-0.686,2.086-1.266,3.225-1.734V55.06c0-1.944-1.576-3.52-3.52-3.52
		c-0.867,0-1.651,0.326-2.264,0.845v-5.739c0-1.944-1.576-3.52-3.521-3.52s-3.52,1.576-3.52,3.52v17.854
		c0.808,0.273,1.559,0.643,2.254,1.087C82.13,66.157,82.92,66.856,83.591,67.653z"/>
	<polygon points="81.279,112.178 78.528,109.274 78.528,130.296 81.279,126.934 	"/>
	<path d="M180.375,39.764c-1.944,0-3.52,1.576-3.52,3.52v19.114l-5.471,8.3h-6.284h-2.79c0.15-0.397,0.237-0.816,0.237-1.244v-2.128
		c0.796,0.297,1.653,0.468,2.552,0.468c4.034,0,7.304-3.27,7.304-7.304s-3.27-7.304-7.304-7.304c-0.899,0-1.757,0.17-2.552,0.468
		v-4.369c0-1.944-1.576-3.52-3.521-3.52c-1.944,0-3.52,1.576-3.52,3.52v16.394l-2.162-3.279V43.284c0-1.944-1.576-3.52-3.52-3.52
		s-3.521,1.576-3.521,3.52v16.369c-0.796-0.297-1.653-0.468-2.553-0.468c-0.446,0-0.88,0.046-1.304,0.123V49.284
		c0-1.944-1.576-3.52-3.52-3.52s-3.52,1.576-3.52,3.52v19.114l-1.705,2.587l-0.268-0.406v0.812v11.981v0.812l0.268-0.406
		l1.329,2.017v15.389c-0.045,0.226-0.07,0.459-0.07,0.698v29.323c0,1.944,1.576,3.52,3.521,3.52c1.944,0,3.52-1.576,3.52-3.52
		v-24.148h1.75h1.75v24.148c0,1.944,1.576,3.52,3.52,3.52s3.521-1.576,3.521-3.52v-29.323c0-0.239-0.025-0.472-0.07-0.698V85.795
		l3.907-5.927v15.316c-0.045,0.226-0.07,0.459-0.07,0.698v29.323c0,1.944,1.576,3.52,3.521,3.52s3.52-1.576,3.52-3.52v-24.148h1.75
		h1.75v24.148c0,1.944,1.576,3.52,3.521,3.52s3.52-1.576,3.52-3.52V95.882c0-0.239-0.025-0.472-0.07-0.698V79.795l9.494-14.404
		c0.379-0.575,0.581-1.248,0.581-1.937v-20.17C183.896,41.341,182.32,39.764,180.375,39.764z M150.037,76.699h-6.284h-5.383
		l2.353-3.569c0.924,0.423,1.948,0.664,3.031,0.664c2.684,0,5.024-1.452,6.293-3.609l2.142,3.25L150.037,76.699z"/>
	<path d="M132.374,89.047c-0.197,0.404-0.41,0.8-0.66,1.179l-13.823,20.973v21.821c0.072,0.498,0.109,1,0.109,1.497v0.169
		c0.127,0.014,0.252,0.039,0.383,0.039c1.944,0,3.52-1.576,3.52-3.52v-24.148h1.75h1.75v24.148c0,1.944,1.576,3.52,3.521,3.52
		s3.52-1.576,3.52-3.52v-29.323c0-0.239-0.025-0.472-0.07-0.698V89.047z"/>
	<path d="M111.898,49.284c0-1.944-1.576-3.52-3.52-3.52s-3.521,1.576-3.521,3.52v0.461c-0.614-0.52-1.397-0.845-2.264-0.845
		c-1.944,0-3.52,1.577-3.52,3.52v7.004c2.035,0.073,3.982,0.489,5.784,1.202c0.428,0.169,0.845,0.359,1.256,0.56
		c2.233,1.094,4.207,2.633,5.784,4.524V49.284z"/>
	<path d="M35.945,33.84c2.1-2.756,2.194-6.632,0.458-9.664c-1.878-3.279-10.086-9.525-5.553-13.158
		c2.516-2.017-1.046-5.531-3.536-3.536c-2.952,2.366-3.233,5.998-2.206,9.438c1.369,4.583,10.362,9.352,6.52,14.396
		C29.672,33.882,34.018,36.368,35.945,33.84z"/>
	<path d="M166.286,12.472c3.208-0.325,2.129-5.211-1.045-4.89c-3.764,0.381-5.974,3.276-6.982,6.722
		c-1.343,4.591,3.613,13.483-2.354,15.627c-3.036,1.091-0.74,5.54,2.251,4.465c3.261-1.172,5.447-4.374,5.638-7.862
		C164,22.761,160.506,13.057,166.286,12.472z"/>
	<path d="M68.353,33.29c0.537,3.452,3.031,6.422,6.392,7.263c3.084,0.772,4.926-3.883,1.797-4.667
		c-6.151-1.541-2.104-10.881-3.896-15.316c-1.345-3.329-3.832-5.99-7.616-5.995c-3.19-0.004-3.779,4.965-0.554,4.969
		C70.284,19.553,67.773,29.557,68.353,33.29z"/>
	<path d="M129.459,15.369c1.47-3.276,1.668-6.913-0.949-9.646c-2.206-2.305-6.199,0.712-3.969,3.041
		c4.017,4.196-4.939,9.312-7.231,12.316c-2.119,2.778-2.534,6.633-0.813,9.641c1.578,2.759,6.212,0.865,4.611-1.936
		C117.96,23.282,127.501,19.734,129.459,15.369z"/>
	<path d="M84.322,20.609c1.339,3.227,4.466,5.521,7.93,5.542c3.179,0.02,3.866-4.939,0.64-4.96
		c-6.341-0.04-4.621-10.073-7.413-13.957c-2.096-2.916-5.142-4.912-8.819-4.02c-3.101,0.752-2.496,5.719,0.638,4.959
		C82.945,6.805,82.874,17.119,84.322,20.609z"/>
	<path d="M49,34.284c4.514,0,4.514-7,0-7S44.486,34.284,49,34.284z"/>
	<path d="M15.5,24.284c4.514,0,4.514-7,0-7S10.986,24.284,15.5,24.284z"/>
	<path d="M109.5,8.284c-4.514,0-4.514,7,0,7S114.014,8.284,109.5,8.284z"/>
	<path d="M103,33.284c4.514,0,4.514-7,0-7S98.486,33.284,103,33.284z"/>
	<path d="M141.5,22.784c4.514,0,4.514-7,0-7S136.986,22.784,141.5,22.784z"/>
	<path d="M181.5,23.284c-4.514,0-4.514,7,0,7S186.014,23.284,181.5,23.284z"/>
	<path d="M114.862,106.708l12.677-19.233c0.585-0.887,0.896-1.926,0.896-2.988v-7.787v-0.912v-3.784V60.978V46.165
		c0-0.133-0.01-0.264-0.02-0.395c-0.203-2.814-2.545-5.036-5.412-5.036c-3,0-5.431,2.432-5.431,5.431v5.618v10.663v8.088v6.165
		v6.158l-2.64,4.005l-5.8,8.801H96.04h-1.198h-7.355l-9.077-9.582l1.8-7.499l0.706-2.941c0.002-0.01,0.003-0.021,0.006-0.031
		c0.033-0.143,0.059-0.286,0.08-0.428c0.007-0.071,0.019-0.14,0.027-0.211c0.07-0.623,0.029-1.238-0.108-1.825
		c-0.13-0.557-0.343-1.089-0.635-1.574c-0.725-1.203-1.911-2.127-3.384-2.481c-0.035-0.008-0.069-0.011-0.104-0.019
		c-0.393-0.087-0.785-0.134-1.172-0.134c-0.021,0-0.041,0.005-0.062,0.005c-2.427,0.028-4.619,1.693-5.211,4.16l-0.229,0.955
		l-0.354,1.476l-2.61,10.875c-0.429,1.787,0.075,3.67,1.338,5.004l7.521,7.94l2.58,2.724l7.68,8.108v0.007v18.526l-0.71,0.867
		l-5.96,7.284L68.237,150.77c-1.819,2.225-1.592,5.481,0.52,7.432l13.838,12.774c1.044,0.964,2.365,1.44,3.682,1.44
		c1.463,0,2.922-0.588,3.992-1.747c2.035-2.205,1.897-5.64-0.307-7.676l-10.078-9.303l9.155-11.188h13.098v37.258
		c0,2.999,2.432,5.431,5.431,5.431s5.431-2.432,5.431-5.431v-45.242c0-0.369-0.039-0.73-0.109-1.078v-23.739L114.862,106.708z"/>
	<path d="M86.269,79.835c0.831,3.478,3.101,6.395,6.158,8.072c1.112,0.61,2.328,1.053,3.613,1.302
		c0.778,0.151,1.579,0.236,2.4,0.236c4.92,0,9.165-2.844,11.214-6.971c0.478-0.963,0.846-1.99,1.064-3.074
		c0.161-0.802,0.248-1.632,0.248-2.482c0-0.979-0.124-1.927-0.336-2.841c-0.66-2.843-2.285-5.31-4.516-7.044
		c-0.4-0.311-0.82-0.596-1.256-0.857c-0.759-0.454-1.567-0.833-2.419-1.12c-1.065-0.359-2.194-0.573-3.365-0.632
		c-0.211-0.011-0.42-0.032-0.634-0.032c-1.82,0-3.545,0.397-5.105,1.095c-0.531,0.237-1.039,0.513-1.528,0.819
		c-3.172,1.987-5.394,5.345-5.817,9.251c-0.008,0.071-0.009,0.142-0.019,0.213c-0.031,0.337-0.048,0.678-0.052,1.022
		c0,0.042-0.006,0.083-0.006,0.126c0,0.405,0.023,0.804,0.061,1.199C86.03,78.704,86.135,79.275,86.269,79.835z"/>
</g>
</svg>
